<svg width="150" height="40" viewBox="0 0 150 40" fill="none" xmlns="http://www.w3.org/2000/svg">
<g clip-path="url(#clip0)">
<path fill-rule="evenodd" clip-rule="evenodd" d="M32.9467 38.9835H18.666C18.2362 38.9628 17.8209 38.8216 17.4678 38.576C17.1146 38.3304 16.838 37.9904 16.6697 37.595L3.6933 2.25871C3.61593 2.10413 3.58164 1.93162 3.59402 1.75926C3.60641 1.5869 3.665 1.42104 3.76367 1.27906C3.86234 1.13708 3.99744 1.02421 4.15483 0.952284C4.31221 0.880356 4.48608 0.852018 4.6582 0.870239H18.9322C19.3625 0.889376 19.7784 1.03001 20.1318 1.27579C20.4852 1.52157 20.7615 1.86241 20.9286 2.25871L33.9382 37.595C34.0199 37.7515 34.0567 37.9276 34.0445 38.1037C34.0322 38.2797 33.9714 38.449 33.8688 38.5927C33.7662 38.7365 33.6257 38.849 33.463 38.918C33.3002 38.987 33.1215 39.0096 32.9467 38.9835Z" fill="#ED2524"/>
<path fill-rule="evenodd" clip-rule="evenodd" d="M12.7168 37.5287L0 2.9364V38.9836H11.7053C11.8857 39.0026 12.0679 38.9729 12.2328 38.8975C12.3977 38.8221 12.5392 38.7039 12.6426 38.5551C12.746 38.4064 12.8075 38.2326 12.8205 38.052C12.8336 37.8715 12.7978 37.6907 12.7168 37.5287Z" fill="#ED2524"/>
<path d="M90.2955 22.6873H102.001C102.087 25.5705 101.575 28.188 100.004 30.4999C97.7685 33.7419 94.5344 35.044 90.6881 35.2101C85.7105 35.4293 81.4982 32.9779 79.4819 28.4405C77.1927 23.3582 77.1927 18.1166 78.7233 12.8417C79.3374 10.6588 80.5744 8.7014 82.2834 7.2081C84.8587 4.9427 87.9797 4.35143 91.2937 4.41787C96.4177 4.52416 99.9978 7.37419 101.016 11.7987C101.063 12.0179 101.309 12.3435 101.468 12.3435C102.979 12.39 104.49 12.3435 106.08 12.3435C105.328 7.48048 103.072 3.83325 98.7068 1.67414C95.16 -0.0664369 91.3403 -0.28567 87.4806 0.272377C81.1455 1.17588 76.6271 4.57067 74.2181 10.49C71.9588 16.0727 71.7654 22.2764 73.6725 27.9887C75.9217 35.2433 81.8908 39.7276 89.3239 39.8605C94.3215 39.9468 98.5671 38.2794 101.795 34.3465C101.955 34.1779 102.129 34.0224 102.314 33.8814C102.646 35.3762 102.932 36.7713 103.279 38.1531C103.345 38.4056 103.645 38.7577 103.851 38.7776C104.782 38.844 105.721 38.7776 106.679 38.7776V18.5285H90.2955V22.6873ZM112.495 26.4076C112.535 26.9723 112.555 27.4307 112.595 27.8824C113.121 33.7353 116.501 37.7877 122.184 39.2227C125.68 40.1269 129.354 40.0902 132.831 39.1164C137.776 37.728 140.983 34.6919 141.702 29.4104C142.367 24.6072 140.151 20.4351 135.44 18.8806C133.444 18.2162 131.401 17.7778 129.378 17.2264C126.809 16.5288 124.207 15.8977 121.672 15.0739C120.812 14.8258 120.053 14.3147 119.5 13.6126C118.947 12.9106 118.629 12.0531 118.591 11.1609C118.384 8.88224 119.083 7.02873 121.053 5.75319C123.588 4.11891 126.376 4.01262 129.238 4.46437C130.767 4.63208 132.202 5.28138 133.336 6.31818C134.471 7.35497 135.245 8.7254 135.546 10.2309C135.699 10.8088 135.766 11.4134 135.879 12.0113H140.71C140.591 8.68958 139.739 5.77312 137.316 3.45457C135.321 1.59497 132.762 0.451937 130.043 0.205943C126.05 -0.272383 122.118 0.0199274 118.597 2.23218C114.871 4.57731 113.433 8.0651 113.739 12.3501C114.032 16.3959 116.568 18.6148 120.134 19.7974C123.062 20.774 126.124 21.4582 129.058 22.3484C130.892 22.8704 132.694 23.4982 134.455 24.2285C135.011 24.4884 135.495 24.8805 135.864 25.3705C136.233 25.8604 136.476 26.4332 136.571 27.0387C136.907 28.3792 136.785 29.7934 136.223 31.0563C135.661 32.3192 134.692 33.3581 133.47 34.0076C130.702 35.529 127.701 35.6153 124.68 35.1171C122.929 34.8808 121.299 34.0942 120.025 32.871C118.752 31.6479 117.903 30.0519 117.599 28.3142C117.466 27.6964 117.426 27.0586 117.346 26.4076H112.495ZM67.6235 12.2704C67.6464 12.1655 67.6598 12.0588 67.6634 11.9515C67.6581 11.7067 67.6359 11.4625 67.5969 11.2207C67.3057 9.42926 66.6351 7.72041 65.6298 6.20822C64.6246 4.69602 63.3079 3.41526 61.7675 2.45142C58.56 0.431819 54.9932 -0.0863672 51.24 0.059788C47.7595 0.153172 44.4009 1.35966 41.6588 3.50163C38.9166 5.64361 36.9357 8.60791 36.0078 11.9581C34.5179 17.1737 34.5525 22.7058 36.1076 27.9023C37.1657 31.616 39.0422 34.9045 42.3695 37.0304C48.0924 40.6909 54.1747 40.8836 60.1704 37.9007C65.4208 35.2898 67.6102 30.5929 68.0161 24.8331H63.0984C63.0252 25.3513 62.9586 25.8296 62.8788 26.3079C62.3331 29.53 60.8359 32.1674 57.9611 33.8283C56.5934 34.6277 55.0719 35.1295 53.4964 35.3008C51.9209 35.4721 50.3269 35.3091 48.8189 34.8223C47.3109 34.3355 45.923 33.5361 44.7461 32.4763C43.5693 31.4166 42.6301 30.1205 41.9902 28.673C39.5613 23.4778 39.6411 18.0435 41.2183 12.6623C41.6186 11.1431 42.3449 9.7289 43.3469 8.51757C44.3488 7.30625 45.6025 6.32676 47.021 5.6469C49.2902 4.54409 51.7191 4.45773 54.168 4.65039C56.1335 4.74042 58.016 5.46843 59.5293 6.72384C61.0426 7.97925 62.1042 9.69344 62.5527 11.606C62.6193 11.8386 62.6925 12.0578 62.7524 12.2704H67.6235Z" fill="#6D6E70"/>
<path d="M90.2955 22.6872V18.5284H106.679V38.7975C105.721 38.7975 104.782 38.8374 103.851 38.7975C103.645 38.7975 103.345 38.4255 103.279 38.173C102.932 36.7912 102.646 35.3961 102.314 33.9013C102.129 34.0423 101.955 34.1978 101.795 34.3663C98.5671 38.2993 94.3215 39.9667 89.3239 39.8804C81.8908 39.7542 75.9217 35.2699 73.6725 28.0152C71.7654 22.303 71.9588 16.0993 74.2181 10.5165C76.6271 4.59721 81.1455 1.21571 87.4806 0.298917C91.3403 -0.25913 95.14 -0.0398977 98.7068 1.72725C103.072 3.88636 105.328 7.53359 106.08 12.3966C104.49 12.3966 102.979 12.3966 101.468 12.3966C101.309 12.3966 101.063 12.071 101.016 11.8518C99.9978 7.4273 96.4177 4.54406 91.2937 4.47098C87.9664 4.40455 84.8587 4.99581 82.2834 7.26122C80.5744 8.75451 79.3374 10.7119 78.7233 12.8948C77.1927 18.1166 77.1927 23.3582 79.4619 28.4404C81.4583 32.9779 85.6906 35.4293 90.6681 35.2101C94.5078 35.044 97.7419 33.7419 99.9845 30.4999C101.582 28.188 102.094 25.5705 101.981 22.6872H90.2955Z" fill="#6D6E70"/>
<path d="M112.495 26.4076H117.346C117.426 27.0719 117.466 27.6964 117.599 28.3142C117.903 30.0519 118.753 31.6479 120.026 32.871C121.299 34.0942 122.929 34.8809 124.68 35.1171C127.701 35.6154 130.669 35.529 133.47 34.0076C134.692 33.3581 135.661 32.3192 136.223 31.0563C136.785 29.7934 136.907 28.3792 136.571 27.0387C136.476 26.4332 136.233 25.8604 135.864 25.3705C135.495 24.8805 135.011 24.4884 134.455 24.2285C132.694 23.4982 130.892 22.8704 129.058 22.3485C126.097 21.4582 123.069 20.774 120.135 19.7974C116.568 18.6149 114.032 16.396 113.74 12.3501C113.433 8.06511 114.871 4.57732 118.597 2.2322C122.118 0.0199396 126.03 -0.272371 130.043 0.239172C132.76 0.47452 135.321 1.60575 137.323 3.45458C139.745 5.77314 140.597 8.69624 140.717 12.0113H135.886C135.773 11.4134 135.706 10.8088 135.553 10.2309C135.251 8.72541 134.477 7.35498 133.343 6.31819C132.209 5.28139 130.773 4.63209 129.245 4.46438C126.396 4.01263 123.595 4.11893 121.06 5.75321C119.063 7.02874 118.398 8.88225 118.597 11.1609C118.636 12.0531 118.954 12.9106 119.507 13.6126C120.06 14.3147 120.819 14.8258 121.678 15.0739C124.214 15.9043 126.816 16.5288 129.384 17.2264C131.381 17.7778 133.464 18.2229 135.447 18.8806C140.158 20.4352 142.361 24.6072 141.709 29.4104C140.99 34.6919 137.782 37.728 132.838 39.1164C129.361 40.0902 125.687 40.1269 122.191 39.2227C116.501 37.7878 113.127 33.7353 112.595 27.9024C112.555 27.4307 112.535 26.9723 112.495 26.4076Z" fill="#6D6E70"/>
<path d="M67.6235 12.2704H62.7523C62.6924 12.0579 62.6192 11.8386 62.5527 11.6061C62.1042 9.6935 61.0426 7.9793 59.5293 6.7239C58.0159 5.46849 56.1335 4.74048 54.168 4.65045C51.7191 4.45114 49.2902 4.53751 47.021 5.64032C45.6063 6.32824 44.3582 7.31489 43.3631 8.53195C42.3681 9.74901 41.6499 11.1674 41.2582 12.689C39.681 18.0967 39.6012 23.5045 42.0301 28.6996C42.6681 30.1438 43.6041 31.4375 44.7768 32.4962C45.9495 33.5549 47.3326 34.3548 48.8359 34.8438C50.3392 35.3328 51.9289 35.4998 53.5013 35.334C55.0736 35.1682 56.5933 34.6732 57.9611 33.8815C60.8358 32.2206 62.3331 29.5832 62.8788 26.3611C62.9586 25.8828 63.0252 25.4045 63.0984 24.8863H68.0161C67.6101 30.6328 65.4208 35.343 60.1704 37.9539C54.1813 40.9368 48.0924 40.7441 42.3695 37.0836C39.0422 34.9577 37.1656 31.6692 36.1075 27.9555C34.5421 22.7424 34.5075 17.1904 36.0077 11.9582C36.9357 8.60797 38.9166 5.64367 41.6587 3.50169C44.4009 1.35972 47.7594 0.15323 51.24 0.0598466C54.9665 -0.0863085 58.52 0.431878 61.7408 2.45148C63.2812 3.41532 64.598 4.69608 65.6032 6.20828C66.6084 7.72047 67.279 9.42932 67.5702 11.2208C67.6092 11.4626 67.6315 11.7067 67.6368 11.9516C67.6419 12.058 67.6375 12.1648 67.6235 12.2704Z" fill="#6D6E70"/>
<path d="M146.4 1.7671C147.1 1.77889 147.781 1.99692 148.358 2.39383C148.934 2.79073 149.38 3.34882 149.64 3.998C149.9 4.64719 149.962 5.35853 149.818 6.04271C149.674 6.72689 149.331 7.3534 148.832 7.84358C148.332 8.33375 147.699 8.66574 147.012 8.79785C146.324 8.92996 145.613 8.8563 144.967 8.58612C144.321 8.31594 143.769 7.8613 143.382 7.27926C142.994 6.69723 142.787 6.01377 142.787 5.31469C142.782 4.84246 142.873 4.37413 143.053 3.9377C143.234 3.50126 143.501 3.10566 143.838 2.77452C144.176 2.44339 144.576 2.18352 145.016 2.01043C145.457 1.83734 145.927 1.75458 146.4 1.7671ZM146.4 2.39159C146.02 2.39138 145.643 2.46755 145.293 2.61555C144.943 2.76356 144.626 2.98038 144.362 3.25311C144.097 3.52584 143.89 3.8489 143.754 4.20307C143.617 4.55724 143.553 4.93528 143.565 5.31469C143.554 5.69641 143.619 6.07656 143.758 6.43245C143.897 6.78834 144.106 7.11268 144.373 7.38611C144.64 7.65955 144.959 7.87647 145.312 8.02394C145.665 8.1714 146.044 8.2464 146.427 8.24443C146.805 8.2441 147.178 8.16687 147.526 8.01746C147.873 7.86805 148.186 7.64959 148.445 7.37541C148.705 7.10124 148.906 6.77711 149.036 6.4228C149.166 6.0685 149.222 5.69145 149.202 5.31469C149.217 4.93738 149.156 4.56087 149.022 4.20767C148.888 3.85447 148.684 3.53181 148.423 3.25896C148.161 2.98612 147.847 2.76869 147.5 2.61967C147.152 2.47064 146.778 2.39307 146.4 2.39159ZM145.735 7.24128H145.069V3.5409C145.495 3.46437 145.927 3.42657 146.36 3.42796C146.774 3.38933 147.19 3.4924 147.538 3.72027C147.657 3.80993 147.753 3.92661 147.818 4.06062C147.882 4.19464 147.914 4.34214 147.911 4.49091C147.903 4.69884 147.827 4.89856 147.695 5.05938C147.563 5.22021 147.381 5.33324 147.179 5.38112V5.42098C147.35 5.50432 147.497 5.62973 147.606 5.78544C147.716 5.94116 147.784 6.12207 147.804 6.3112C147.834 6.6351 147.924 6.95057 148.07 7.24128H147.358C147.194 6.93968 147.094 6.60704 147.065 6.2647C146.972 5.86609 146.733 5.68672 146.2 5.68672H145.735V7.24128ZM145.735 5.15525H146.2C146.713 5.15525 147.152 5.00245 147.152 4.55734C147.152 4.11223 146.932 3.95943 146.267 3.95943C146.089 3.95101 145.911 3.95991 145.735 3.98601V5.15525Z" fill="#6D6E70"/>
</g>
<defs>
<clipPath id="clip0">
<rect width="150" height="40" fill="white"/>
</clipPath>
</defs>
</svg>
